# Blender 4.0.1
# www.blender.org
mtllib gameplace.mtl
o room
v -201.960785 -0.500014 -157.745087
v -201.960785 -5.500014 -157.745087
v -201.960785 -0.499986 182.254883
v -201.960785 -5.499986 182.254883
v 198.039215 -0.500014 -157.745087
v 198.039215 -5.500014 -157.745087
v 198.039215 -0.499986 182.254883
v 198.039215 -5.499986 182.254883
v 198.039215 -5.500006 -157.745117
v 198.039215 64.499985 -157.745117
v 198.039215 -5.500005 -147.745117
v 198.039215 64.499992 -147.745117
v -201.960785 -5.500006 -157.745056
v -201.960785 64.499985 -157.745087
v -201.960785 -5.500005 -147.745056
v -201.960785 64.499992 -147.745087
v 198.039215 -5.499995 172.320496
v 198.039215 64.500008 172.320496
v 198.039215 -5.499994 182.320496
v 198.039215 64.500008 182.320496
v -201.960785 -5.499995 172.320526
v -201.960785 64.500008 172.320526
v -201.960785 -5.499994 182.058136
v -201.960785 64.500008 182.058105
v 198.039200 -5.500014 -157.745087
v 198.039200 64.499985 -157.745087
v 198.039230 -5.499986 182.254913
v 198.039230 64.500015 182.254913
v 188.039200 -5.500014 -157.745087
v 188.039200 64.499985 -157.745087
v 188.039230 -5.499986 182.254913
v 188.039230 64.500015 182.254913
v -191.960800 -5.500014 -157.745087
v -191.960800 64.499985 -157.745087
v -191.960770 -5.499986 182.254913
v -191.960770 64.500015 182.254913
v -201.960800 -5.500014 -157.745087
v -201.960800 64.499985 -157.745087
v -201.960770 -5.499986 182.254913
v -201.960770 64.500015 182.254913
v -201.960785 -3.000003 -65.745087
v -201.960785 -3.000005 -145.745056
v 198.039215 -3.000003 -65.745087
v 198.039215 -3.000005 -145.745087
v 198.039215 16.999992 -145.745087
v 198.039185 59.499989 -157.745117
v 198.039185 64.499985 -157.745117
v 198.039215 59.500004 42.254868
vn -1.0000 -0.0000 -0.0000
vn -0.0000 -0.0000 1.0000
vn 1.0000 -0.0000 -0.0000
vn -0.0000 -0.0000 -1.0000
vn -0.0000 1.0000 -0.0000
vn -0.0000 -1.0000 -0.0000
vn -0.0007 -0.0000 1.0000
vt 0.625000 0.000000
vt 0.375000 0.250000
vt 0.375000 0.000000
vt 0.625000 0.250000
vt 0.375000 0.500000
vt 0.625000 0.500000
vt 0.375000 0.750000
vt 0.625000 0.750000
vt 0.375000 1.000000
vt 1.000000 0.000000
vt 0.000000 1.000000
vt 0.000000 0.000000
vt 0.875000 0.500000
vt 0.625000 1.000000
vt 1.000000 1.000000
vt 0.875000 0.750000
vt 0.125000 0.750000
vt 0.125000 0.500000
s 0
f 2/1/1 3/2/1 1/3/1
f 4/4/2 7/5/2 3/2/2
f 8/6/3 5/7/3 7/5/3
f 6/8/4 1/9/4 5/7/4
f 7/10/5 1/11/5 3/12/5
f 4/13/6 6/8/6 8/6/6
f 2/1/1 4/4/1 3/2/1
f 4/4/2 8/6/2 7/5/2
f 8/6/3 6/8/3 5/7/3
f 6/8/4 2/14/4 1/9/4
f 7/10/5 5/15/5 1/11/5
f 4/13/6 2/16/6 6/8/6
f 10/1/3 11/2/3 9/3/3
f 12/10/2 15/11/2 11/12/2
f 16/6/1 13/7/1 15/5/1
f 14/8/4 9/9/4 13/7/4
f 15/5/6 9/17/6 11/18/6
f 12/13/5 14/8/5 16/6/5
f 10/1/3 12/4/3 11/2/3
f 12/10/2 16/15/2 15/11/2
f 16/6/1 14/8/1 13/7/1
f 14/8/4 10/14/4 9/9/4
f 15/5/6 13/7/6 9/17/6
f 12/13/5 10/16/5 14/8/5
f 18/1/3 19/2/3 17/3/3
f 20/4/7 23/5/7 19/2/7
f 24/6/1 21/7/1 23/5/1
f 22/10/4 17/11/4 21/12/4
f 23/5/6 17/17/6 19/18/6
f 24/6/5 18/16/5 22/8/5
f 18/1/3 20/4/3 19/2/3
f 20/4/7 24/6/7 23/5/7
f 24/6/1 22/8/1 21/7/1
f 22/10/4 18/15/4 17/11/4
f 23/5/6 21/7/6 17/17/6
f 24/6/5 20/13/5 18/16/5
f 26/1/3 27/2/3 25/3/3
f 28/4/2 31/5/2 27/2/2
f 32/10/1 29/11/1 31/12/1
f 30/8/4 25/9/4 29/7/4
f 31/5/6 25/17/6 27/18/6
f 28/13/5 30/8/5 32/6/5
f 26/1/3 28/4/3 27/2/3
f 28/4/2 32/6/2 31/5/2
f 32/10/1 30/15/1 29/11/1
f 30/8/4 26/14/4 25/9/4
f 31/5/6 29/7/6 25/17/6
f 28/13/5 26/16/5 30/8/5
f 34/10/3 35/11/3 33/12/3
f 36/4/2 39/5/2 35/2/2
f 40/6/1 37/7/1 39/5/1
f 38/8/4 33/9/4 37/7/4
f 39/5/6 33/17/6 35/18/6
f 36/13/5 38/8/5 40/6/5
f 34/10/3 36/15/3 35/11/3
f 36/4/2 40/6/2 39/5/2
f 40/6/1 38/8/1 37/7/1
f 38/8/4 34/14/4 33/9/4
f 39/5/6 37/7/6 33/17/6
f 36/13/5 34/16/5 38/8/5
f 45/6/3 43/7/3 44/5/3
f 44/5/6 41/17/6 42/18/6
f 44/5/6 43/7/6 41/17/6
f 47/1/3 48/2/3 46/3/3
